PathFileType	4	(X/Y/Z)	Patient4_TMGait_0pt2_03_right_20.trc.trc
DataRate	CameraRate	NumFrames	NumMarkers	Units	OrigDataRate	OrigDataStartFrame	OrigNumFrames
48.275862068966	48.275862068966	4	33	mm	48.275862068966	53	       141
Frame#	Time	Sacral			L.Shoulder			Chest			R.Shoulder			Neck			R.ASIS			L.ASIS			R.Thigh.Superior			R.Thigh.Lateral			R.Thigh.Inferior			R.Patella			L.Thigh.Superior			L.Thigh.Lateral			L.Thigh.Inferior			L.Patella			L.Shank.Superior			L.Shank.Lateral			L.Shank.Inferior			R.Shank.Superior			R.Shank.Lateral			R.Shank.Inferior			R.Heel			R.Midfoot.Superior			R.Midfoot.Lateral			R.Toe			L.Heel			L.Midfoot.Lateral			L.Midfoot.Superior			L.Toe			L.Elbow			L.Wrist			R.Elbow			R.Wrist			
		X1	Y1	Z1	X2	Y2	Z2	X3	Y3	Z3	X4	Y4	Z4	X5	Y5	Z5	X6	Y6	Z6	X7	Y7	Z7	X8	Y8	Z8	X9	Y9	Z9	X10	Y10	Z10	X11	Y11	Z11	X12	Y12	Z12	X13	Y13	Z13	X14	Y14	Z14	X15	Y15	Z15	X16	Y16	Z16	X17	Y17	Z17	X18	Y18	Z18	X19	Y19	Z19	X20	Y20	Z20	X21	Y21	Z21	X22	Y22	Z22	X23	Y23	Z23	X24	Y24	Z24	X25	Y25	Z25	X26	Y26	Z26	X27	Y27	Z27	X28	Y28	Z28	X29	Y29	Z29	X30	Y30	Z30	X31	Y31	Z31	X32	Y32	Z32	X33	Y33	Z33	

53	44.027142857143	892.561006558860	998.177903713701	638.457000037025	1083.232606641101	1419.749544341052	441.614140596735	1193.718084744166	1340.577922388015	592.338838569750	1133.062242195589	1420.478592135049	772.465885586585	1092.225202047868	1480.988502347468	597.196919807265	1133.353168574249	924.586168704531	728.946023921950	1089.095005487057	953.716412377772	459.339359963216	1179.495468626379	729.147433766237	672.581249520596	1112.816961834570	610.554030477033	731.996101153900	1177.919920127057	567.793413902193	635.647180530851	1181.761732905468	471.565475396424	633.607741354827	1179.079336883200	776.957905335411	480.647425887220	1129.101472877998	644.712100937574	388.615473398800	1241.679804914577	591.210637374025	451.885359313740	1256.154527829155	503.228970771490	434.833718718270	1190.254693736352	438.127180316838	415.515526633067	1049.397169746957	398.574925000243	362.922362686980	1043.656130537384	261.188437589102	394.418939996889	1134.116828356846	385.532035473465	642.983053449279	1058.577442682390	293.898631880447	717.664120076106	1062.525560308853	198.047715731879	646.264578027441	895.310217344532	50.081084378003	646.607868648828	1071.968324159606	96.729546030318	650.904563933302	989.645384041955	40.297689852942	704.611428974421	1193.323096725458	39.623099054938	659.196669459392	859.153921541322	193.499959758974	427.742552281808	910.276486161975	154.666330541133	340.791924999064	1015.619825006290	155.215319654333	357.822004349962	1085.450672815475	43.968383968785	314.155475364791	941.739208957100	1098.129335771492	335.577886174348	873.062301447402	846.873614166270	359.086713022257	1221.218372512088	1104.427598997867	920.316587961130	1465.944813047469	1130.810471837301	868.007045332773	
54	44.047857142857	892.313040597562	996.546728261940	641.495914751441	1078.674902809235	1419.243568311771	443.322017347815	1191.606068755355	1340.103750168844	592.255930874849	1133.428499484626	1419.410476494942	773.292398878856	1088.882192127275	1480.193466096943	599.067994334331	1134.225809670790	923.308048345833	729.048278326002	1087.024530071337	953.277261638422	460.006683484514	1179.923619880455	727.932453231191	671.881090778189	1113.954119919589	609.090289011718	731.563155704455	1178.462655341622	566.638531280948	634.644806138404	1182.142328376327	470.002578115564	632.467318075951	1178.296119986742	777.650141119751	480.530505810932	1128.769071874114	644.888583880317	388.858887301019	1242.102157643707	592.544133565866	451.364962100518	1257.899775534806	505.392444439746	434.126646424081	1194.201162398619	439.142047873170	414.780145793683	1054.951629135674	394.367807213692	362.883066165220	1055.292530053061	256.832839066672	393.856946731032	1133.547563643844	384.119492833463	642.124738422477	1057.430857359199	293.242833263378	717.251832778109	1059.856223526768	197.387323276667	645.952623789900	891.254295971126	50.399827080079	646.742163543613	1067.962718259863	96.719674829750	650.935462657250	985.587202715441	40.433752441289	704.714411852679	1189.214886794601	39.520129166776	659.225865590866	874.468031572523	178.587884387871	428.030515764844	927.311954970380	145.177434523280	339.920826565274	1032.169798180312	152.057237404424	356.531941580563	1108.505728896544	46.612928962655	310.114251780179	932.264207518645	1099.823850114608	340.364987308962	859.110576180583	850.168308512405	367.902217400344	1237.029177192932	1107.423212695896	916.408833416216	1476.444832968539	1153.777811011909	856.124801962143	
55	44.068571428571	892.090756235323	995.512484399221	644.223198656403	1074.102494106315	1419.276175682654	444.990384977417	1189.569628306887	1340.073228163332	591.950241906222	1134.095973989506	1418.801447625678	773.899179444991	1085.651456522706	1479.860097259076	600.896970828330	1134.949873914823	922.340571208100	728.717297608778	1084.843049552504	953.379811167732	460.282371469266	1179.694945664856	726.890752261385	670.936036442399	1114.276509582104	608.015323317642	731.082615466625	1178.059190796970	565.665888593336	633.634319036843	1181.482153579559	468.766231695985	631.432672795243	1176.772893114535	778.241033122673	479.921063264883	1127.174932178647	645.147758871358	388.601726775525	1240.946734702580	593.556156556226	450.323063883286	1257.971813439966	507.529109195087	432.987748716454	1196.987953400922	440.152044293449	413.561975594761	1060.278615794467	389.180403552917	361.663407450590	1067.482412559441	251.793715308410	392.366856353772	1132.164983422622	383.040776272497	641.372388938419	1055.660975404087	292.753176204703	716.936817807363	1056.840668300276	196.906543542687	645.710647606662	887.161400015626	50.694999305232	646.887471479842	1063.930771723844	96.726650706870	651.009030947929	981.508889593501	40.549047588634	704.822867701576	1185.082076323551	39.429191696459	659.244677792283	891.195746887800	162.270976577299	426.514972054252	946.174104631613	134.218237591927	337.759684738215	1050.158844806776	147.915902643953	354.488979663419	1133.469494377669	48.870700190979	306.317604179010	923.426017351662	1101.804739811010	345.167867354278	847.014135569378	853.461630042335	376.856044684285	1252.939204206431	1111.748579757207	911.996365756015	1485.330849275378	1177.086656145724	843.896482412950	
56	44.089285714286	891.908922255383	995.120351199108	646.601959242219	1069.544386492255	1419.879365900859	446.574074390747	1187.614923799093	1340.546685324427	591.402123337424	1135.020274862681	1418.720733864328	774.247088732752	1082.547165726010	1480.030563536810	602.626072877373	1135.522849817873	921.757234494144	727.993803336754	1082.618761035836	954.050258573988	460.192040768252	1178.809339821100	726.066038514191	669.828484134785	1113.743050319590	607.376262970965	730.624416131071	1176.680663556056	564.908610724546	632.704008219763	1179.737273771335	467.893961005838	630.593207555474	1174.588731332966	778.766044762841	478.925836785415	1124.492275903815	645.553263449721	387.861855741550	1238.356938144766	594.292443982694	448.856895586925	1256.519939884071	509.669011867453	431.501292321304	1198.690062773781	441.237839591176	411.945005128746	1065.466691689925	383.363228547491	359.321145038679	1080.066677874195	246.493698983710	390.038632769460	1129.931579571485	382.331358200174	640.793928323020	1053.226555091664	292.449841188340	716.762542845475	1053.461832427472	196.626500731998	645.567771425797	883.031883921582	50.967770869355	647.040596107015	1059.872450490233	96.753791518186	651.130171428898	977.406678665357	40.643161983969	704.934282441215	1180.923256428059	39.349664746935	659.251821223968	909.122841073137	145.555519110873	423.319237721714	966.511616085508	122.519828932411	334.454059137336	1069.234406638237	143.155847686174	351.795702194423	1159.572027495830	50.734301805880	302.968519646572	915.156681012543	1104.122015795693	349.892605545629	836.535171533003	856.820423202235	385.751159653401	1268.698989554418	1117.414802989309	907.105769903075	1492.588757203458	1200.496679510633	831.501466279606	
